<?xml version="1.0" encoding="UTF-8" standalone="no"?>
<!-- Created with Inkscape (http://www.inkscape.org/) -->

<svg
   version="1.1"
   id="svg1"
   width="1000"
   height="1000"
   viewBox="0 0 1000 1000"
   sodipodi:docname="icon.svg"
   xml:space="preserve"
   inkscape:version="1.4 (e7c3feb100, 2024-10-09)"
   inkscape:export-filename="icon.png"
   inkscape:export-xdpi="96"
   inkscape:export-ydpi="96"
   xmlns:inkscape="http://www.inkscape.org/namespaces/inkscape"
   xmlns:sodipodi="http://sodipodi.sourceforge.net/DTD/sodipodi-0.dtd"
   xmlns:xlink="http://www.w3.org/1999/xlink"
   xmlns="http://www.w3.org/2000/svg"
   xmlns:svg="http://www.w3.org/2000/svg"><defs
     id="defs1"><linearGradient
       id="linearGradient2"><stop
         style="stop-color:#ce1628;stop-opacity:1;"
         offset="0"
         id="stop7" /><stop
         style="stop-color:#f3c108;stop-opacity:1;"
         offset="0.25"
         id="stop8" /><stop
         style="stop-color:#8cf308;stop-opacity:1;"
         offset="0.5"
         id="stop9" /><stop
         style="stop-color:#00338c;stop-opacity:1;"
         offset="1"
         id="stop10" /></linearGradient><linearGradient
       id="linearGradient2-1"><stop
         style="stop-color:#ce1628;stop-opacity:1;"
         offset="0"
         id="stop2" /><stop
         style="stop-color:#f3c108;stop-opacity:1;"
         offset="1"
         id="stop5" /></linearGradient><linearGradient
       inkscape:collect="always"
       xlink:href="#linearGradient2-1"
       id="linearGradient3"
       x1="208.4465"
       y1="191.59741"
       x2="1156.8867"
       y2="1173.736"
       gradientUnits="userSpaceOnUse"
       gradientTransform="scale(0.73242192)" /></defs><sodipodi:namedview
     id="namedview1"
     pagecolor="#ffffff"
     bordercolor="#000000"
     borderopacity="0.25"
     inkscape:showpageshadow="2"
     inkscape:pageopacity="0.0"
     inkscape:pagecheckerboard="0"
     inkscape:deskcolor="#d1d1d1"
     inkscape:zoom="0.56053257"
     inkscape:cx="486.14481"
     inkscape:cy="559.28953"
     inkscape:window-width="2230"
     inkscape:window-height="1296"
     inkscape:window-x="0"
     inkscape:window-y="52"
     inkscape:window-maximized="1"
     inkscape:current-layer="g1"
     showguides="true" /><g
     inkscape:groupmode="layer"
     inkscape:label="Image"
     id="g1"><rect
       style="opacity:0.275146;vector-effect:non-scaling-stroke;fill:#ffffff;fill-opacity:1;stroke:#ffffff;stroke-width:0.907339;stroke-linecap:round;stroke-linejoin:bevel;-inkscape-stroke:hairline;paint-order:fill markers stroke"
       id="rect11"
       width="618"
       height="618"
       x="191"
       y="191"
       rx="5.814301" /><rect
       style="opacity:1;vector-effect:non-scaling-stroke;fill:url(#linearGradient3);stroke:#ffffff;stroke-width:0.732422;stroke-linecap:round;stroke-linejoin:bevel;-inkscape-stroke:hairline;paint-order:fill markers stroke"
       id="rect2"
       width="1000"
       height="1000"
       x="0"
       y="0"
       rx="6.421134" /><g
       style="fill:#ffffff"
       id="g10"
       transform="matrix(0.85679773,0,0,0.85679773,556.51649,1311.1776)"
       inkscape:label="check"><path
         d="m -366.60768,-647.40034 v -599.99996 529.99996 -88 z m 0,60 q -24,0 -42,-18 -18,-18 -18,-42 v -599.99996 q 0,-24 18,-42 18,-18 42,-18 h 600 q 24,0 42,18 18,18 18,42 v 389.99996 h -60 v -389.99996 h -600 v 599.99996 h 339.999997 v 60 z m 522,40 -130.000003,-130 42,-43 88.000003,88 175,-175 43,42 z m -381,-379 q 9,-9 9,-21 0,-12 -9,-21 -9,-9 -21,-9 -12,0 -21,9 -9,9 -9,21 0,12 9,21 9,9 21,9 12,0 21,-9 z m 0,-163.99996 q 9,-9 9,-21 0,-12 -9,-21 -9,-9 -21,-9 -12,0 -21,9 -9,9 -9,21 0,12 9,21 9,9 21,9 12,0 21,-9 z m 111,172.99996 h 244 v -60 h -244 z m 0,-163.99996 h 244 v -60 h -244 z"
         id="path1" /></g></g></svg>
